<?xml version="1.0" standalone="no"?>
<!DOCTYPE svg PUBLIC "-//W3C//DTD SVG 20010904//EN"
 "http://www.w3.org/TR/2001/REC-SVG-20010904/DTD/svg10.dtd">
<svg version="1.0" xmlns="http://www.w3.org/2000/svg"
 width="1024.000000pt" height="1024.000000pt" viewBox="0 0 1024.000000 1024.000000"
 preserveAspectRatio="xMidYMid meet">

<g transform="translate(0.000000,1024.000000) scale(0.100000,-0.100000)"
fill="#000000" stroke="none">
<path d="M5245 8712 c-42 -4 -71 -20 -58 -33 4 -4 32 -12 61 -18 72 -15 90 -3
55 36 -13 13 -29 18 -58 15z"/>
<path d="M5185 8540 c3 -5 8 -10 11 -10 2 0 4 5 4 10 0 6 -5 10 -11 10 -5 0
-7 -4 -4 -10z"/>
<path d="M4892 8528 c6 -18 28 -21 28 -4 0 9 -7 16 -16 16 -9 0 -14 -5 -12
-12z"/>
<path d="M5317 8481 c-10 -4 -102 -6 -203 -6 -152 1 -187 -1 -197 -13 -14 -18
-19 -2436 -5 -2947 4 -170 10 -447 12 -615 2 -168 4 -326 5 -352 1 -59 30 -92
74 -82 41 9 58 -10 51 -56 -6 -34 13 -187 37 -305 22 -111 23 -208 2 -281 -12
-38 -23 -86 -26 -106 -7 -49 -63 -118 -96 -118 -13 0 -39 -13 -58 -30 -18 -17
-40 -30 -48 -30 -8 0 -29 -9 -47 -19 -77 -46 -296 -123 -403 -142 -164 -30
-372 -36 -482 -14 -48 9 -98 22 -110 28 -16 7 -26 7 -37 -2 -12 -10 -22 -8
-53 16 -52 39 -92 85 -93 105 0 9 -4 19 -9 23 -18 10 -49 90 -66 167 -24 111
-22 310 4 408 19 73 64 174 96 215 8 11 26 34 39 50 20 26 46 91 46 118 0 5
-10 1 -22 -7 -12 -9 -30 -16 -39 -16 -16 0 -89 -95 -89 -116 0 -7 -7 -17 -15
-24 -22 -18 -75 -135 -101 -225 -32 -108 -34 -310 -4 -395 11 -30 19 -63 20
-73 0 -29 69 -159 101 -192 16 -17 29 -35 29 -39 0 -5 10 -19 23 -31 12 -12
44 -45 71 -73 27 -29 52 -52 57 -52 4 0 14 -6 21 -13 23 -21 77 -57 85 -57 5
0 24 -10 43 -23 36 -24 153 -70 225 -89 60 -15 311 -3 341 16 13 9 30 16 37
16 8 0 51 18 95 40 44 22 83 40 87 40 20 0 221 169 269 226 61 75 134 213 151
288 14 63 35 73 35 18 0 -22 7 -55 16 -74 9 -18 25 -50 35 -70 11 -20 19 -44
19 -52 0 -38 232 -286 267 -286 7 0 13 -4 13 -10 0 -5 9 -10 20 -10 11 0 37
-9 57 -20 21 -11 45 -20 55 -20 9 0 19 -4 23 -9 3 -5 31 -15 63 -22 31 -6 71
-18 89 -25 17 -8 49 -14 72 -14 22 0 75 -5 118 -12 60 -8 102 -8 183 1 143 17
198 35 361 121 19 10 81 66 136 123 111 117 159 199 189 322 9 39 21 74 25 80
13 13 11 292 -2 340 -6 22 -14 65 -19 96 -8 62 -19 86 -48 112 -18 17 -21 17
-37 1 -12 -13 -15 -28 -12 -58 5 -38 9 -59 36 -161 17 -65 13 -250 -8 -350
-21 -101 -76 -229 -112 -262 -13 -12 -49 -29 -79 -38 -30 -9 -68 -22 -83 -27
-16 -6 -42 -11 -58 -10 -17 0 -48 -6 -71 -14 -49 -17 -305 -20 -423 -5 -177
23 -257 40 -329 70 -41 17 -83 31 -94 31 -10 0 -27 9 -37 20 -10 11 -22 20
-27 20 -8 0 -76 46 -141 94 -48 36 -117 104 -117 116 0 6 -10 39 -21 73 -28
81 -31 297 -6 432 9 50 17 122 17 162 0 76 3 82 53 92 20 4 37 17 48 37 16 29
18 116 24 1120 4 599 11 1476 14 1949 6 782 6 862 -9 884 -19 28 -28 32 -53
22z m-140 -234 c5 -61 3 -81 -11 -102 -37 -57 -57 -12 -44 100 12 106 14 113
34 93 10 -9 17 -43 21 -91z"/>
<path d="M5527 8262 c-8 -45 -1 -70 14 -55 5 5 5 29 1 53 l-8 45 -7 -43z"/>
<path d="M5442 8220 c0 -14 2 -19 5 -12 2 6 2 18 0 25 -3 6 -5 1 -5 -13z"/>
<path d="M5551 7894 c0 -11 3 -14 6 -6 3 7 2 16 -1 19 -3 4 -6 -2 -5 -13z"/>
<path d="M4821 7678 c1 -51 4 -104 8 -118 7 -24 8 -23 13 10 7 48 -3 200 -13
200 -5 0 -9 -42 -8 -92z"/>
<path d="M5551 7744 c0 -11 3 -14 6 -6 3 7 2 16 -1 19 -3 4 -6 -2 -5 -13z"/>
<path d="M7210 7046 c0 -4 -30 -6 -67 -5 -47 3 -67 0 -70 -8 -3 -8 4 -13 16
-13 11 0 31 -5 45 -11 19 -9 31 -8 56 5 18 9 43 13 55 10 13 -3 26 -1 29 4 3
6 24 8 46 5 27 -4 40 -2 40 6 0 17 -31 26 -40 11 -5 -8 -13 -9 -21 -4 -18 11
-89 11 -89 0z"/>
<path d="M7370 7030 c0 -5 5 -10 10 -10 6 0 10 5 10 10 0 6 -4 10 -10 10 -5 0
-10 -4 -10 -10z"/>
<path d="M5447 6949 c-7 -26 5 -45 22 -35 14 9 14 18 -2 41 -13 17 -14 17 -20
-6z"/>
<path d="M2385 6900 c-3 -5 1 -10 9 -10 9 0 16 5 16 10 0 6 -4 10 -9 10 -6 0
-13 -4 -16 -10z"/>
<path d="M2540 6899 c0 -5 5 -7 10 -4 6 3 10 8 10 11 0 2 -4 4 -10 4 -5 0 -10
-5 -10 -11z"/>
<path d="M3194 6903 c10 -10 76 -20 76 -12 0 10 0 10 -48 14 -18 1 -31 1 -28
-2z"/>
<path d="M7490 6900 c20 -13 40 -13 40 0 0 6 -12 10 -27 10 -22 0 -25 -2 -13
-10z"/>
<path d="M7720 6900 c0 -5 4 -10 9 -10 6 0 13 5 16 10 3 6 -1 10 -9 10 -9 0
-16 -4 -16 -10z"/>
<path d="M3040 6896 c0 -10 28 -13 41 -5 10 6 7 9 -13 9 -16 0 -28 -2 -28 -4z"/>
<path d="M3470 6886 c0 -17 18 -31 48 -39 35 -8 25 21 -15 42 -28 14 -33 14
-33 -3z"/>
<path d="M7597 6893 c-15 -14 -6 -24 20 -21 34 4 43 28 11 28 -14 0 -28 -3
-31 -7z"/>
<path d="M2585 6880 c-3 -5 3 -10 15 -10 12 0 30 -5 41 -10 12 -7 19 -7 19 -1
0 19 -65 37 -75 21z"/>
<path d="M3337 6883 c-28 -7 -9 -23 29 -23 24 0 34 4 32 13 -5 13 -32 18 -61
10z"/>
<path d="M7000 6870 c0 -13 7 -20 20 -20 11 0 20 4 20 8 0 5 10 14 23 20 20 9
17 11 -20 11 -37 1 -43 -2 -43 -19z"/>
<path d="M2477 6864 c-35 -19 -26 -37 10 -19 24 12 29 12 43 0 9 -8 20 -15 25
-15 4 0 -4 11 -19 25 -15 14 -28 25 -29 25 -1 -1 -15 -8 -30 -16z"/>
<path d="M2713 6873 c-17 -6 -16 -23 1 -23 8 0 16 7 20 15 6 15 1 17 -21 8z"/>
<path d="M7772 6864 c9 -9 24 -14 32 -11 27 11 17 27 -16 27 -30 0 -31 -1 -16
-16z"/>
<path d="M2315 6860 c3 -5 8 -10 11 -10 2 0 4 5 4 10 0 6 -5 10 -11 10 -5 0
-7 -4 -4 -10z"/>
<path d="M3190 6849 c0 -5 5 -7 10 -4 6 3 10 8 10 11 0 2 -4 4 -10 4 -5 0 -10
-5 -10 -11z"/>
<path d="M7130 6843 c-36 -9 -78 -21 -95 -28 -72 -30 -154 -73 -199 -105 -75
-53 -221 -203 -270 -278 -44 -66 -106 -190 -106 -211 0 -6 -7 -25 -15 -43 -9
-18 -21 -91 -28 -163 -11 -112 -11 -149 3 -270 8 -77 21 -150 28 -162 7 -12
12 -42 12 -66 0 -30 7 -51 20 -67 11 -13 20 -31 20 -41 0 -9 6 -30 14 -46 7
-15 24 -50 37 -78 39 -82 117 -204 171 -269 63 -76 271 -266 291 -266 5 0 21
-8 35 -19 33 -23 138 -76 172 -86 14 -4 43 -16 65 -25 22 -10 54 -20 70 -23
17 -2 66 -12 110 -22 98 -22 338 -17 395 7 19 9 41 13 47 11 7 -3 25 5 39 16
15 12 33 21 40 21 25 0 177 105 234 161 62 60 130 142 130 154 0 5 11 25 24
44 22 33 54 111 101 246 27 76 34 451 10 515 -9 25 -20 69 -24 98 -4 28 -12
57 -19 64 -7 7 -12 23 -12 38 -1 14 -9 43 -20 65 -11 22 -19 44 -20 50 0 15
-81 167 -112 209 -15 21 -28 45 -28 53 0 7 -4 13 -8 13 -5 0 -36 35 -70 78
-92 114 -88 111 -250 234 -87 65 -245 143 -364 178 -91 27 -113 30 -232 29
-77 -1 -158 -7 -196 -16z m380 -60 c190 -52 343 -133 491 -260 96 -82 215
-239 287 -378 95 -184 130 -316 153 -572 12 -135 12 -141 -15 -270 -38 -190
-110 -336 -220 -451 -95 -99 -193 -159 -336 -203 -66 -21 -93 -24 -235 -23
-141 1 -171 4 -258 28 -54 15 -114 34 -135 42 -72 30 -181 86 -193 100 -6 8
-16 14 -21 14 -16 0 -150 114 -214 182 -33 35 -81 95 -107 132 -48 68 -127
216 -127 236 0 6 -9 32 -21 57 -47 102 -89 332 -89 484 0 146 47 362 92 418 7
9 24 37 37 63 56 107 238 279 357 338 166 82 394 108 554 63z"/>
<path d="M7155 6474 c-166 -20 -197 -33 -326 -135 -46 -36 -117 -126 -147
-185 -40 -79 -65 -201 -66 -314 0 -115 29 -281 64 -371 52 -131 143 -274 232
-361 57 -55 201 -152 261 -175 54 -21 234 -23 332 -4 145 28 300 126 374 235
69 103 111 260 111 411 -1 110 -27 305 -48 360 -10 28 -22 59 -27 70 -53 138
-102 211 -203 306 -89 84 -151 118 -267 147 -108 27 -172 31 -290 16z m350
-95 c96 -33 239 -153 281 -236 10 -21 28 -54 40 -73 12 -19 24 -53 28 -75 4
-21 14 -52 22 -68 9 -15 14 -40 11 -55 -3 -26 -4 -26 -21 13 -10 22 -24 43
-32 48 -7 4 -16 24 -20 45 -9 52 -57 153 -85 178 -13 12 -33 25 -45 28 -11 3
-44 36 -73 71 -42 53 -56 64 -74 60 -15 -4 -31 3 -52 22 -16 15 -37 26 -47 25
-24 -4 -88 17 -88 29 0 16 95 9 155 -12z m225 -277 c0 -15 -2 -15 -10 -2 -13
20 -13 33 0 25 6 -3 10 -14 10 -23z"/>
<path d="M3550 6831 c0 -12 5 -21 10 -21 6 0 10 6 10 14 0 8 -4 18 -10 21 -5
3 -10 -3 -10 -14z"/>
<path d="M6901 6836 c-8 -10 -9 -16 -2 -21 14 -8 53 13 46 26 -9 13 -31 11
-44 -5z"/>
<path d="M2815 6833 c-33 -2 -74 -10 -92 -18 -17 -8 -38 -15 -46 -15 -8 0 -42
-13 -75 -30 -34 -16 -64 -30 -68 -30 -6 0 -46 -26 -168 -110 -27 -18 -129
-105 -165 -140 -43 -41 -161 -183 -161 -192 0 -5 -11 -24 -24 -41 -22 -30 -78
-141 -109 -217 -21 -51 -45 -138 -52 -189 -3 -24 -13 -57 -22 -75 -14 -26 -17
-70 -17 -296 -1 -229 1 -269 16 -295 9 -16 26 -61 38 -100 12 -38 29 -77 36
-86 8 -8 14 -20 14 -25 0 -19 73 -111 133 -168 68 -66 186 -143 260 -171 26
-10 50 -22 53 -26 3 -5 15 -9 27 -9 12 0 36 -7 52 -16 29 -15 146 -36 210 -37
96 -2 325 39 392 69 17 8 35 14 40 14 12 0 162 76 181 92 10 8 30 20 45 28 51
25 167 135 249 235 47 58 88 115 88 123 0 6 6 15 13 19 13 9 87 151 87 169 0
6 9 21 20 34 11 13 20 36 20 52 0 16 5 39 12 51 7 12 15 49 19 82 4 32 13 64
21 70 9 7 14 43 16 120 2 61 8 125 13 143 11 32 7 112 -10 262 -9 75 -30 151
-57 203 -7 16 -14 34 -14 40 0 24 -116 181 -183 246 -125 122 -171 146 -407
217 -56 17 -260 26 -385 17z m250 -58 c109 -11 255 -49 340 -91 93 -45 230
-175 287 -273 88 -151 123 -289 122 -486 -1 -200 -23 -335 -94 -567 -12 -40
-95 -193 -148 -273 -56 -84 -194 -225 -278 -282 -143 -97 -300 -157 -479 -183
-44 -6 -97 -16 -118 -21 -42 -11 -74 -6 -238 41 -389 112 -589 384 -589 801 0
274 43 483 142 689 104 215 303 426 507 535 20 11 49 28 64 38 47 30 179 66
282 75 55 5 107 8 115 6 8 -1 47 -5 85 -9z"/>
<path d="M2905 6430 c-154 -39 -254 -93 -349 -186 -61 -59 -166 -204 -166
-227 0 -6 -12 -35 -26 -64 -14 -30 -32 -85 -40 -121 -7 -37 -19 -83 -25 -102
-6 -19 -13 -121 -16 -226 -5 -178 -4 -196 16 -254 33 -95 48 -120 110 -183 77
-79 148 -120 266 -153 86 -24 117 -27 228 -27 113 1 137 4 205 29 42 15 109
46 147 68 243 140 358 298 426 586 30 124 30 380 1 465 -76 224 -182 343 -352
396 -85 26 -319 26 -425 -1z m421 -66 c72 -21 138 -58 169 -97 14 -18 35 -43
45 -55 11 -13 20 -29 20 -36 0 -7 9 -21 20 -31 11 -10 20 -30 20 -44 1 -14 7
-37 15 -51 25 -44 14 -141 -12 -108 -6 7 -13 30 -17 50 -4 21 -14 42 -24 47
-12 7 -17 23 -17 53 0 32 -4 42 -14 40 -18 -4 -31 16 -31 46 0 13 -7 30 -15
38 -8 8 -18 20 -22 27 -10 15 -89 67 -103 67 -17 0 -117 47 -124 59 -10 16 26
14 90 -5z m310 -521 c-2 -3 -9 -2 -15 1 -7 5 -6 16 2 34 l12 27 3 -29 c2 -15
1 -30 -2 -33z"/>
<path d="M7705 6830 c-8 -13 20 -24 41 -16 20 8 9 26 -16 26 -10 0 -22 -5 -25
-10z"/>
<path d="M3425 6821 c-9 -16 3 -31 26 -31 14 0 19 6 17 17 -4 20 -33 29 -43
14z"/>
<path d="M7800 6790 c0 -5 7 -10 15 -10 8 0 15 5 15 10 0 6 -7 10 -15 10 -8 0
-15 -4 -15 -10z"/>
<path d="M6816 6774 c-4 -11 0 -15 16 -12 12 2 23 9 26 16 6 18 -35 15 -42 -4z"/>
<path d="M3492 6758 c6 -18 28 -21 28 -4 0 9 -7 16 -16 16 -9 0 -14 -5 -12
-12z"/>
<path d="M2416 6745 c-11 -8 -18 -17 -15 -19 2 -2 15 4 28 15 27 22 15 26 -13
4z"/>
<path d="M3588 6689 c24 -22 47 -38 50 -34 8 8 -67 75 -83 75 -5 0 10 -18 33
-41z"/>
<path d="M2345 6699 c-4 -6 -4 -13 -1 -16 8 -8 36 5 36 17 0 13 -27 13 -35 -1z"/>
<path d="M2270 6685 c0 -9 10 -19 23 -24 27 -11 31 -8 22 18 -7 24 -45 29 -45
6z"/>
<path d="M6705 6690 c-3 -5 -1 -10 4 -10 6 0 11 5 11 10 0 6 -2 10 -4 10 -3 0
-8 -4 -11 -10z"/>
<path d="M8170 6671 c0 -15 6 -21 21 -21 14 0 19 5 17 17 -5 26 -38 29 -38 4z"/>
<path d="M5452 6650 c0 -19 2 -27 5 -17 2 9 2 25 0 35 -3 9 -5 1 -5 -18z"/>
<path d="M6606 6664 c-4 -10 -1 -14 6 -12 15 5 23 28 10 28 -5 0 -13 -7 -16
-16z"/>
<path d="M2128 6625 c5 -28 14 -31 32 -10 14 17 5 35 -19 35 -14 0 -17 -6 -13
-25z"/>
<path d="M2226 6621 c-29 -32 -14 -47 17 -19 15 14 24 28 20 31 -10 11 -19 8
-37 -12z"/>
<path d="M3665 6630 c3 -5 8 -10 11 -10 2 0 4 5 4 10 0 6 -5 10 -11 10 -5 0
-7 -4 -4 -10z"/>
<path d="M8040 6620 c0 -5 5 -10 10 -10 6 0 10 5 10 10 0 6 -4 10 -10 10 -5 0
-10 -4 -10 -10z"/>
<path d="M3717 6574 c6 -15 23 -19 23 -5 0 5 -7 11 -14 14 -10 4 -13 1 -9 -9z"/>
<path d="M8097 6584 c-9 -10 2 -24 19 -24 8 0 14 7 14 15 0 15 -21 21 -33 9z"/>
<path d="M2086 6563 c-3 -10 -9 -25 -12 -33 -5 -11 -2 -11 13 3 27 24 43 21
43 -8 0 -16 -6 -25 -15 -25 -8 0 -15 -4 -15 -10 0 -5 7 -10 15 -10 8 0 15 5
15 10 0 6 6 10 14 10 16 0 46 26 46 41 0 5 -11 9 -25 9 -14 0 -28 7 -31 15 -8
21 -40 19 -48 -2z"/>
<path d="M3797 6564 c-8 -8 1 -24 14 -24 5 0 9 7 9 15 0 15 -12 20 -23 9z"/>
<path d="M5511 6494 c0 -11 3 -14 6 -6 3 7 2 16 -1 19 -3 4 -6 -2 -5 -13z"/>
<path d="M6470 6500 c0 -5 5 -10 11 -10 5 0 7 5 4 10 -3 6 -8 10 -11 10 -2 0
-4 -4 -4 -10z"/>
<path d="M3762 6482 c4 -21 38 -29 38 -9 0 8 -9 17 -21 20 -15 4 -19 1 -17
-11z"/>
<path d="M6510 6471 c0 -25 6 -27 13 -6 4 8 2 17 -3 20 -6 4 -10 -3 -10 -14z"/>
<path d="M2017 6474 c-10 -11 3 -24 24 -24 10 0 19 7 19 15 0 15 -31 21 -43 9z"/>
<path d="M6426 6471 c-4 -7 -5 -15 -2 -18 9 -9 19 4 14 18 -4 11 -6 11 -12 0z"/>
<path d="M8285 6470 c-3 -5 1 -10 10 -10 9 0 13 5 10 10 -3 6 -8 10 -10 10 -2
0 -7 -4 -10 -10z"/>
<path d="M1930 6460 c0 -5 5 -10 11 -10 5 0 7 5 4 10 -3 6 -8 10 -11 10 -2 0
-4 -4 -4 -10z"/>
<path d="M8224 6439 c-3 -6 -1 -16 5 -22 9 -9 14 -8 21 3 5 8 10 18 10 23 0
11 -28 8 -36 -4z"/>
<path d="M8293 6420 c-29 -35 -38 -60 -24 -60 13 0 51 36 51 49 0 5 3 16 6 25
10 25 -9 18 -33 -14z"/>
<path d="M6470 6414 c-13 -34 -2 -53 17 -29 15 22 17 55 3 55 -6 0 -15 -12
-20 -26z"/>
<path d="M2020 6395 c-7 -9 -10 -18 -7 -21 10 -11 37 5 37 21 0 19 -14 19 -30
0z"/>
<path d="M1915 6361 c-6 -11 9 -23 19 -14 9 9 7 23 -3 23 -6 0 -12 -4 -16 -9z"/>
<path d="M8325 6357 c-4 -10 -5 -21 -1 -24 10 -10 18 4 13 24 -4 17 -4 17 -12
0z"/>
<path d="M1966 6309 c-26 -31 -30 -50 -11 -51 11 -1 49 71 42 79 -3 2 -17 -10
-31 -28z"/>
<path d="M6380 6288 c0 -7 5 -20 10 -28 9 -13 11 -13 20 0 5 8 8 20 7 25 -5
15 -37 18 -37 3z"/>
<path d="M3890 6248 c0 -13 9 -34 20 -48 l20 -25 0 32 c0 17 -3 38 -6 47 -9
24 -34 19 -34 -6z"/>
<path d="M3980 6243 c0 -25 15 -38 25 -22 4 6 0 18 -9 27 -15 15 -16 15 -16
-5z"/>
<path d="M5448 6194 c-2 -36 -1 -85 2 -108 l6 -41 7 34 c10 48 9 181 -2 181
-5 0 -11 -30 -13 -66z"/>
<path d="M8430 6202 c0 -17 6 -32 15 -36 11 -4 15 1 15 18 0 13 -7 29 -15 36
-13 11 -15 8 -15 -18z"/>
<path d="M8370 6210 c0 -5 5 -10 11 -10 5 0 7 5 4 10 -3 6 -8 10 -11 10 -2 0
-4 -4 -4 -10z"/>
<path d="M1894 6185 c-3 -8 -3 -19 1 -25 9 -14 35 6 35 26 0 19 -29 18 -36 -1z"/>
<path d="M8411 6134 c0 -11 3 -14 6 -6 3 7 2 16 -1 19 -3 4 -6 -2 -5 -13z"/>
<path d="M5518 6104 c-5 -4 -8 -19 -8 -33 0 -18 3 -22 11 -14 6 6 9 21 7 33
-1 12 -6 18 -10 14z"/>
<path d="M1710 6021 c0 -17 4 -33 10 -36 11 -7 25 39 15 54 -12 21 -25 11 -25
-18z"/>
<path d="M1813 6028 c2 -7 10 -13 17 -13 7 0 15 6 18 13 2 7 -5 12 -18 12 -13
0 -20 -5 -17 -12z"/>
<path d="M8500 6030 c0 -5 5 -10 10 -10 6 0 10 5 10 10 0 6 -4 10 -10 10 -5 0
-10 -4 -10 -10z"/>
<path d="M8474 5965 c-3 -14 -4 -28 -1 -31 10 -10 27 7 27 26 0 30 -19 33 -26
5z"/>
<path d="M8537 5936 c-5 -15 -6 -31 -3 -34 8 -8 18 25 14 45 -3 13 -6 10 -11
-11z"/>
<path d="M8512 5877 c-11 -13 -11 -22 -1 -52 7 -19 19 -35 26 -35 15 0 17 12
4 26 -5 5 -11 24 -13 43 -3 30 -5 32 -16 18z"/>
<path d="M3935 5870 c-4 -6 -2 -17 4 -23 15 -15 25 -2 13 19 -7 12 -11 13 -17
4z"/>
<path d="M1717 5823 c-11 -10 -8 -43 3 -43 6 0 10 11 10 25 0 26 -2 29 -13 18z"/>
<path d="M1790 5810 c0 -11 0 -23 -1 -27 0 -4 4 -9 10 -11 6 -2 11 10 11 27 0
17 -4 31 -10 31 -5 0 -10 -9 -10 -20z"/>
<path d="M5467 5816 c-4 -10 -5 -21 -2 -24 9 -9 17 6 13 25 -3 17 -4 17 -11
-1z"/>
<path d="M3911 5770 c-1 -57 8 -90 24 -90 7 0 15 9 18 21 7 27 -3 89 -15 89
-5 0 -6 -4 -3 -10 3 -5 3 -16 -2 -22 -5 -9 -10 -1 -14 22 -6 34 -6 34 -8 -10z"/>
<path d="M5466 5725 c4 -8 8 -15 10 -15 2 0 4 7 4 15 0 8 -4 15 -10 15 -5 0
-7 -7 -4 -15z"/>
<path d="M1697 5723 c-11 -10 -8 -43 3 -43 6 0 10 11 10 25 0 26 -2 29 -13 18z"/>
<path d="M1767 5683 c-11 -10 -8 -83 3 -83 6 0 10 20 10 45 0 46 -2 50 -13 38z"/>
<path d="M8541 5664 c0 -11 3 -14 6 -6 3 7 2 16 -1 19 -3 4 -6 -2 -5 -13z"/>
<path d="M5470 5633 c0 -22 2 -25 10 -13 13 20 13 40 0 40 -5 0 -10 -12 -10
-27z"/>
<path d="M8544 5505 c0 -60 1 -84 3 -52 2 32 2 81 0 110 -2 29 -3 3 -3 -58z"/>
<path d="M1603 5538 c-6 -7 -14 -32 -18 -56 -7 -42 -6 -44 16 -40 20 2 24 9
25 43 2 50 -8 72 -23 53z"/>
<path d="M6430 5424 c0 -8 5 -12 10 -9 6 4 8 11 5 16 -9 14 -15 11 -15 -7z"/>
<path d="M3830 5415 c0 -8 7 -15 15 -15 8 0 15 7 15 15 0 8 -7 15 -15 15 -8 0
-15 -7 -15 -15z"/>
<path d="M6392 5384 c-32 -22 -29 -46 6 -42 21 2 28 9 30 31 4 31 -4 34 -36
11z"/>
<path d="M3900 5365 c0 -9 5 -15 11 -13 6 2 11 8 11 13 0 5 -5 11 -11 13 -6 2
-11 -4 -11 -13z"/>
<path d="M6440 5333 c0 -9 10 -27 22 -40 12 -13 24 -41 27 -63 6 -44 24 -55
29 -18 4 32 -44 138 -63 138 -8 0 -15 -8 -15 -17z"/>
<path d="M8543 5315 c0 -22 2 -30 4 -17 2 12 2 30 0 40 -3 9 -5 -1 -4 -23z"/>
<path d="M3800 5276 c0 -20 5 -36 10 -36 6 0 10 13 10 29 0 17 -4 33 -10 36
-6 4 -10 -8 -10 -29z"/>
<path d="M6405 5260 c-4 -7 -1 -16 6 -21 17 -10 26 8 11 23 -6 6 -12 6 -17 -2z"/>
<path d="M1720 5205 c0 -8 5 -15 10 -15 6 0 10 7 10 15 0 8 -4 15 -10 15 -5 0
-10 -7 -10 -15z"/>
<path d="M1765 5211 c-3 -5 -1 -12 5 -16 5 -3 10 1 10 9 0 18 -6 21 -15 7z"/>
<path d="M8510 5199 c0 -11 4 -18 10 -14 5 3 7 12 3 20 -7 21 -13 19 -13 -6z"/>
<path d="M3756 5194 c-15 -38 -7 -50 29 -46 41 5 45 23 10 46 -30 20 -31 20
-39 0z"/>
<path d="M1790 5164 c0 -8 5 -12 10 -9 6 3 10 10 10 16 0 5 -4 9 -10 9 -5 0
-10 -7 -10 -16z"/>
<path d="M8508 5154 c-5 -4 -8 -21 -8 -38 0 -21 3 -27 11 -19 6 6 9 23 7 38
-2 15 -6 23 -10 19z"/>
<path d="M3722 5123 c-18 -32 -16 -51 4 -31 9 8 14 24 12 34 -4 18 -5 17 -16
-3z"/>
<path d="M3789 5086 c-7 -14 -16 -26 -21 -26 -4 0 -8 -7 -8 -17 0 -14 2 -15
18 -1 9 8 25 18 35 21 10 4 17 14 15 24 -5 27 -27 26 -39 -1z"/>
<path d="M8457 5072 c-10 -11 -13 -27 -10 -45 5 -23 1 -29 -16 -34 -45 -12
-16 -33 33 -24 28 6 30 9 30 58 1 57 -12 73 -37 45z"/>
<path d="M1705 5040 c-3 -5 1 -10 9 -10 9 0 16 5 16 10 0 6 -4 10 -9 10 -6 0
-13 -4 -16 -10z"/>
<path d="M6622 5027 c-13 -14 -19 -28 -14 -31 12 -7 45 29 40 44 -2 6 -13 1
-26 -13z"/>
<path d="M8530 5024 c0 -14 4 -23 10 -19 6 3 10 15 10 26 0 10 -4 19 -10 19
-5 0 -10 -12 -10 -26z"/>
<path d="M1820 5016 c0 -14 5 -28 10 -31 6 -3 10 5 10 19 0 14 -4 28 -10 31
-6 3 -10 -5 -10 -19z"/>
<path d="M3890 5011 c0 -12 6 -21 15 -21 8 0 15 4 15 9 0 5 -7 14 -15 21 -13
10 -15 9 -15 -9z"/>
<path d="M3697 4994 c-14 -14 -7 -25 13 -22 12 2 21 8 21 13 0 12 -24 18 -34
9z"/>
<path d="M3795 4980 c-3 -5 1 -10 9 -10 9 0 16 5 16 10 0 6 -4 10 -9 10 -6 0
-13 -4 -16 -10z"/>
<path d="M6670 4980 c0 -5 8 -13 18 -19 13 -8 14 -12 5 -22 -14 -14 -2 -43 23
-53 13 -5 15 -2 9 11 -4 10 -9 25 -10 33 -8 39 -19 60 -31 60 -8 0 -14 -4 -14
-10z"/>
<path d="M6610 4950 c0 -5 5 -10 10 -10 6 0 10 5 10 10 0 6 -4 10 -10 10 -5 0
-10 -4 -10 -10z"/>
<path d="M8432 4924 c1 -9 9 -19 16 -22 9 -3 13 2 10 14 -1 9 -9 19 -16 22 -9
3 -13 -2 -10 -14z"/>
<path d="M3570 4905 c7 -9 15 -13 17 -11 7 7 -7 26 -19 26 -6 0 -6 -6 2 -15z"/>
<path d="M1892 4893 c2 -10 11 -19 21 -21 16 -3 17 -1 5 17 -16 25 -31 27 -26
4z"/>
<path d="M3540 4860 c0 -11 7 -20 15 -20 17 0 18 2 9 24 -9 23 -24 20 -24 -4z"/>
<path d="M6740 4875 c0 -10 29 -24 34 -17 3 6 -3 12 -14 15 -11 3 -20 4 -20 2z"/>
<path d="M8370 4864 c0 -8 5 -12 10 -9 6 4 8 11 5 16 -9 14 -15 11 -15 -7z"/>
<path d="M6820 4850 c0 -6 7 -10 15 -10 8 0 15 2 15 4 0 2 -7 6 -15 10 -8 3
-15 1 -15 -4z"/>
<path d="M8437 4810 c-31 -32 -33 -40 -12 -40 8 0 15 6 15 14 0 8 9 18 20 21
21 7 26 20 12 29 -5 3 -20 -8 -35 -24z"/>
<path d="M3490 4819 c0 -17 59 -71 70 -64 16 10 12 23 -9 30 -10 3 -21 15 -24
25 -5 21 -37 28 -37 9z"/>
<path d="M6650 4822 c0 -5 7 -15 15 -22 8 -7 15 -8 15 -2 0 5 -7 15 -15 22 -8
7 -15 8 -15 2z"/>
<path d="M3580 4805 c0 -8 7 -15 15 -15 8 0 15 7 15 15 0 8 -7 15 -15 15 -8 0
-15 -7 -15 -15z"/>
<path d="M1910 4806 c0 -7 58 -66 64 -66 3 0 6 9 6 20 0 13 -7 20 -20 20 -11
0 -20 7 -20 15 0 8 -7 15 -15 15 -8 0 -15 -2 -15 -4z"/>
<path d="M6860 4800 c0 -5 5 -10 10 -10 6 0 10 5 10 10 0 6 -4 10 -10 10 -5 0
-10 -4 -10 -10z"/>
<path d="M8280 4789 c-17 -31 -7 -33 20 -4 19 20 20 25 7 25 -9 0 -21 -9 -27
-21z"/>
<path d="M6767 4793 c-22 -6 -17 -27 6 -31 12 -2 17 3 17 17 0 12 -1 20 -2 20
-2 -1 -11 -3 -21 -6z"/>
<path d="M3436 4782 c-9 -8 14 -32 30 -32 21 0 17 27 -5 33 -11 3 -22 2 -25
-1z"/>
<path d="M8223 4733 c-3 -10 -8 -21 -10 -25 -2 -5 0 -8 6 -8 12 0 41 28 41 41
0 16 -30 10 -37 -8z"/>
<path d="M3350 4710 c0 -5 7 -10 16 -10 8 0 12 5 9 10 -3 6 -10 10 -16 10 -5
0 -9 -4 -9 -10z"/>
<path d="M2100 4690 c0 -5 7 -10 15 -10 8 0 15 -6 15 -14 0 -21 21 -31 30 -15
6 9 -1 19 -21 31 -34 21 -39 22 -39 8z"/>
<path d="M3280 4680 c-11 -7 -7 -11 14 -20 16 -6 33 -13 37 -16 20 -12 7 12
-15 28 -14 10 -28 13 -36 8z"/>
<path d="M7048 4663 c7 -3 16 -2 19 1 4 3 -2 6 -13 5 -11 0 -14 -3 -6 -6z"/>
<path d="M7080 4640 c0 -5 12 -10 28 -10 21 0 24 2 12 10 -20 13 -40 13 -40 0z"/>
<path d="M8087 4628 c-14 -13 -36 -31 -49 -40 l-23 -17 22 -1 c13 0 28 9 35
20 19 30 42 24 69 -15 24 -35 61 -47 74 -24 10 15 -23 47 -56 54 -32 7 -35 15
-17 33 23 23 -28 13 -55 -10z"/>
<path d="M8237 4639 c-17 -10 -23 -29 -9 -29 5 0 16 6 27 13 22 17 7 29 -18
16z"/>
<path d="M3180 4625 c-10 -12 -10 -15 4 -15 9 0 16 4 16 9 0 5 8 12 18 14 13
4 13 5 -4 6 -12 0 -27 -6 -34 -14z"/>
<path d="M2186 4605 l-17 -25 32 13 c38 15 50 37 21 37 -11 0 -27 -11 -36 -25z"/>
<path d="M3360 4620 c0 -5 5 -10 10 -10 6 0 10 5 10 10 0 6 -4 10 -10 10 -5 0
-10 -4 -10 -10z"/>
<path d="M1974 4579 c-9 -14 24 -41 46 -37 8 2 15 12 15 23 0 23 -48 34 -61
14z"/>
<path d="M2262 4574 c-12 -8 -22 -19 -22 -25 0 -15 27 -10 33 5 5 11 16 13 44
9 35 -6 37 -5 24 10 -17 21 -50 22 -79 1z"/>
<path d="M3081 4576 c-10 -12 -8 -13 9 -9 25 7 37 23 17 23 -8 0 -20 -6 -26
-14z"/>
<path d="M3312 4579 c2 -6 8 -10 13 -10 5 0 11 4 13 10 2 6 -4 11 -13 11 -9 0
-15 -5 -13 -11z"/>
<path d="M3218 4573 c7 -3 16 -2 19 1 4 3 -2 6 -13 5 -11 0 -14 -3 -6 -6z"/>
<path d="M8245 4560 c-8 -12 20 -24 35 -15 5 3 10 10 10 16 0 12 -37 12 -45
-1z"/>
<path d="M2370 4545 c0 -10 10 -15 26 -15 22 0 25 2 14 15 -7 8 -19 15 -26 15
-8 0 -14 -7 -14 -15z"/>
<path d="M7155 4550 c3 -5 14 -10 23 -10 15 0 15 2 2 10 -20 13 -33 13 -25 0z"/>
<path d="M8087 4554 c-8 -8 1 -24 14 -24 5 0 9 7 9 15 0 15 -12 20 -23 9z"/>
<path d="M3660 4535 c0 -8 9 -15 20 -15 11 0 20 7 20 15 0 8 -9 15 -20 15 -11
0 -20 -7 -20 -15z"/>
<path d="M5420 4536 c0 -9 5 -16 10 -16 6 0 10 4 10 9 0 6 -4 13 -10 16 -5 3
-10 -1 -10 -9z"/>
<path d="M3760 4524 c0 -8 5 -12 10 -9 6 3 10 10 10 16 0 5 -4 9 -10 9 -5 0
-10 -7 -10 -16z"/>
<path d="M5480 4520 c0 -5 5 -10 10 -10 6 0 10 5 10 10 0 6 -4 10 -10 10 -5 0
-10 -4 -10 -10z"/>
<path d="M2530 4511 c0 -5 9 -7 20 -4 11 3 20 7 20 9 0 2 -9 4 -20 4 -11 0
-20 -4 -20 -9z"/>
<path d="M3601 4484 c-12 -14 -20 -31 -17 -37 3 -9 5 -9 5 0 1 7 15 19 31 28
31 16 40 35 17 35 -7 0 -23 -12 -36 -26z"/>
<path d="M3800 4390 c0 -5 5 -10 10 -10 6 0 10 5 10 10 0 6 -4 10 -10 10 -5 0
-10 -4 -10 -10z"/>
<path d="M4890 4365 c0 -8 5 -15 10 -15 6 0 10 7 10 15 0 8 -4 15 -10 15 -5 0
-10 -7 -10 -15z"/>
<path d="M5512 4359 c1 -13 8 -23 13 -21 15 3 12 35 -3 40 -9 3 -13 -3 -10
-19z"/>
<path d="M3746 4352 c-2 -4 -1 -14 4 -22 7 -11 12 -12 21 -3 6 6 8 16 5 22 -8
13 -23 14 -30 3z"/>
<path d="M5306 4351 c-4 -7 -5 -15 -2 -18 9 -9 19 4 14 18 -4 11 -6 11 -12 0z"/>
<path d="M3500 4310 c0 -5 5 -10 10 -10 6 0 10 5 10 10 0 6 -4 10 -10 10 -5 0
-10 -4 -10 -10z"/>
<path d="M6737 4307 c-11 -29 -9 -43 4 -30 6 6 9 19 7 29 -3 18 -4 18 -11 1z"/>
<path d="M3700 4300 c0 -5 5 -10 10 -10 6 0 10 5 10 10 0 6 -4 10 -10 10 -5 0
-10 -4 -10 -10z"/>
<path d="M4897 4297 c-3 -8 -1 -20 4 -28 6 -10 9 -7 9 14 0 29 -5 35 -13 14z"/>
<path d="M3460 4245 c0 -8 0 -18 -1 -22 0 -4 4 -9 10 -11 6 -2 11 8 11 22 0
14 -4 26 -10 26 -5 0 -10 -7 -10 -15z"/>
<path d="M3690 4230 c-9 -16 -8 -20 5 -20 8 0 15 9 15 20 0 11 -2 20 -5 20 -2
0 -9 -9 -15 -20z"/>
<path d="M6940 4161 c0 -22 5 -43 10 -46 6 -4 10 12 10 39 0 25 -4 46 -10 46
-5 0 -10 -18 -10 -39z"/>
<path d="M6720 4136 c0 -17 5 -26 16 -26 10 0 14 7 12 22 -5 32 -28 35 -28 4z"/>
<path d="M3425 4141 c-3 -5 -1 -12 5 -16 5 -3 10 1 10 9 0 18 -6 21 -15 7z"/>
<path d="M6650 4135 c0 -8 5 -15 10 -15 6 0 10 7 10 15 0 8 -4 15 -10 15 -5 0
-10 -7 -10 -15z"/>
<path d="M4903 4030 c0 -43 12 -54 19 -17 5 28 -1 57 -11 57 -5 0 -8 -18 -8
-40z"/>
<path d="M7017 4043 c-4 -3 -7 -11 -7 -17 0 -6 5 -5 12 2 6 6 9 14 7 17 -3 3
-9 2 -12 -2z"/>
<path d="M6983 3955 c0 -22 2 -30 4 -17 2 12 2 30 0 40 -3 9 -5 -1 -4 -23z"/>
<path d="M5267 3928 c-8 -27 8 -47 24 -31 13 13 9 45 -7 50 -6 2 -14 -6 -17
-19z"/>
<path d="M6750 3931 c0 -11 5 -23 10 -26 6 -3 10 3 10 14 0 11 -4 23 -10 26
-5 3 -10 -3 -10 -14z"/>
<path d="M6661 3874 c0 -11 3 -14 6 -6 3 7 2 16 -1 19 -3 4 -6 -2 -5 -13z"/>
<path d="M6982 3825 c0 -16 2 -22 5 -12 2 9 2 23 0 30 -3 6 -5 -1 -5 -18z"/>
<path d="M3596 3827 c-5 -9 -5 -29 0 -45 7 -25 8 -26 11 -4 3 12 3 32 0 45 -3
19 -4 20 -11 4z"/>
<path d="M3385 3720 c-7 -12 2 -30 16 -30 12 0 12 27 0 35 -5 3 -12 1 -16 -5z"/>
<path d="M6642 3668 c2 -12 10 -23 18 -23 22 0 19 39 -3 43 -15 3 -18 -1 -15
-20z"/>
<path d="M6980 3660 c0 -19 7 -33 20 -40 19 -10 20 -9 14 17 -10 46 -13 53
-24 53 -5 0 -10 -13 -10 -30z"/>
<path d="M3631 3664 c0 -11 3 -14 6 -6 3 7 2 16 -1 19 -3 4 -6 -2 -5 -13z"/>
<path d="M4940 3670 c0 -5 6 -10 14 -10 8 0 18 5 21 10 3 6 -3 10 -14 10 -12
0 -21 -4 -21 -10z"/>
<path d="M6720 3668 c1 -7 7 -24 15 -38 l15 -25 -2 34 c-3 32 -28 59 -28 29z"/>
<path d="M4890 3640 c0 -13 5 -20 13 -17 6 2 12 10 12 17 0 7 -6 15 -12 18 -8
2 -13 -5 -13 -18z"/>
<path d="M4780 3631 c0 -11 39 -25 47 -18 3 3 2 10 -2 16 -8 13 -45 15 -45 2z"/>
<path d="M5430 3615 c0 -8 7 -15 15 -15 8 0 15 4 15 9 0 5 -7 11 -15 15 -9 3
-15 0 -15 -9z"/>
<path d="M6612 3590 c0 -14 2 -19 5 -12 2 6 2 18 0 25 -3 6 -5 1 -5 -13z"/>
<path d="M6940 3556 c0 -43 13 -69 22 -43 7 19 -3 87 -13 87 -5 0 -9 -20 -9
-44z"/>
<path d="M3460 3556 c0 -8 5 -18 10 -21 6 -3 10 3 10 14 0 12 -4 21 -10 21 -5
0 -10 -6 -10 -14z"/>
<path d="M5130 3560 c0 -5 5 -10 10 -10 6 0 10 5 10 10 0 6 -4 10 -10 10 -5 0
-10 -4 -10 -10z"/>
<path d="M6700 3549 c0 -11 5 -17 10 -14 6 3 10 13 10 21 0 8 -4 14 -10 14 -5
0 -10 -9 -10 -21z"/>
<path d="M6631 3544 c0 -11 3 -14 6 -6 3 7 2 16 -1 19 -3 4 -6 -2 -5 -13z"/>
<path d="M3700 3500 c0 -5 5 -10 11 -10 5 0 7 5 4 10 -3 6 -8 10 -11 10 -2 0
-4 -4 -4 -10z"/>
<path d="M5150 3490 c0 -5 4 -10 9 -10 6 0 13 5 16 10 3 6 -1 10 -9 10 -9 0
-16 -4 -16 -10z"/>
<path d="M6875 3489 c-4 -5 1 -20 11 -32 11 -12 19 -23 20 -25 1 -1 8 0 17 4
15 5 14 9 -6 34 -24 32 -33 35 -42 19z"/>
<path d="M3500 3480 c0 -5 5 -10 10 -10 6 0 10 5 10 10 0 6 -4 10 -10 10 -5 0
-10 -4 -10 -10z"/>
<path d="M5097 3474 c-4 -4 -7 -16 -7 -26 0 -16 3 -17 21 -8 11 6 19 16 16 23
-4 14 -21 20 -30 11z"/>
<path d="M6845 3451 c-3 -5 -1 -12 5 -16 5 -3 10 1 10 9 0 18 -6 21 -15 7z"/>
<path d="M6395 3420 c4 -6 11 -8 16 -5 14 9 11 15 -7 15 -8 0 -12 -5 -9 -10z"/>
<path d="M6820 3404 c0 -8 5 -12 10 -9 6 4 8 11 5 16 -9 14 -15 11 -15 -7z"/>
<path d="M5013 3364 c-24 -26 -43 -53 -43 -60 0 -23 30 -16 39 9 5 12 23 32
40 45 31 23 42 52 19 52 -7 0 -32 -21 -55 -46z"/>
<path d="M5130 3365 c-7 -9 -10 -18 -7 -22 8 -7 37 15 37 28 0 14 -16 11 -30
-6z"/>
<path d="M3595 3350 c4 -6 11 -8 16 -5 14 9 11 15 -7 15 -8 0 -12 -5 -9 -10z"/>
<path d="M5077 3323 c-13 -12 -7 -33 8 -33 8 0 15 9 15 20 0 20 -11 26 -23 13z"/>
<path d="M6777 3313 c-16 -15 -6 -34 15 -31 29 4 38 38 10 38 -10 0 -22 -3
-25 -7z"/>
<path d="M3640 3300 c0 -5 5 -10 10 -10 6 0 10 5 10 10 0 6 -4 10 -10 10 -5 0
-10 -4 -10 -10z"/>
<path d="M5147 3276 c-6 -15 1 -26 15 -26 4 0 8 9 8 20 0 23 -15 27 -23 6z"/>
<path d="M3602 3269 c2 -6 8 -10 13 -10 5 0 11 4 13 10 2 6 -4 11 -13 11 -9 0
-15 -5 -13 -11z"/>
<path d="M4927 3273 c-12 -11 -8 -23 8 -23 8 0 15 7 15 15 0 16 -12 20 -23 8z"/>
<path d="M5240 3270 c0 -5 5 -10 10 -10 6 0 10 5 10 10 0 6 -4 10 -10 10 -5 0
-10 -4 -10 -10z"/>
<path d="M5025 3260 c3 -5 8 -10 11 -10 2 0 4 5 4 10 0 6 -5 10 -11 10 -5 0
-7 -4 -4 -10z"/>
<path d="M6720 3260 c0 -5 9 -10 20 -10 11 0 20 5 20 10 0 6 -9 10 -20 10 -11
0 -20 -4 -20 -10z"/>
<path d="M3655 3243 c-24 -6 -44 -32 -45 -55 0 -25 21 -23 27 2 8 31 46 25 66
-10 10 -16 24 -30 32 -30 27 0 26 21 -4 51 -17 17 -31 35 -31 40 0 9 -12 10
-45 2z"/>
<path d="M4834 3175 c-4 -8 -12 -15 -20 -15 -15 0 -19 -12 -8 -23 7 -7 54 33
54 46 0 13 -21 7 -26 -8z"/>
<path d="M5416 3181 c-3 -5 1 -11 9 -15 8 -3 15 -1 15 4 0 13 -18 22 -24 11z"/>
<path d="M6636 3171 c-4 -5 -2 -12 3 -15 5 -4 12 -2 15 3 4 5 2 12 -3 15 -5 4
-12 2 -15 -3z"/>
<path d="M3820 3150 c0 -5 5 -10 10 -10 6 0 10 5 10 10 0 6 -4 10 -10 10 -5 0
-10 -4 -10 -10z"/>
<path d="M5535 3151 c-7 -12 12 -24 25 -16 11 7 4 25 -10 25 -5 0 -11 -4 -15
-9z"/>
<path d="M6535 3136 c-14 -15 -34 -26 -45 -26 -23 0 -36 -18 -23 -31 6 -6 19
-3 34 9 13 10 36 23 52 30 28 12 35 26 17 37 -5 3 -21 -5 -35 -19z"/>
<path d="M5339 3116 c16 -19 44 -21 39 -3 -3 6 -15 14 -28 15 -21 3 -22 2 -11
-12z"/>
<path d="M4685 3110 c-3 -5 3 -10 15 -10 12 0 18 5 15 10 -3 6 -10 10 -15 10
-5 0 -12 -4 -15 -10z"/>
<path d="M5610 3109 c0 -5 9 -9 20 -9 11 0 20 2 20 4 0 2 -9 6 -20 9 -11 3
-20 1 -20 -4z"/>
<path d="M3888 3103 c7 -3 16 -2 19 1 4 3 -2 6 -13 5 -11 0 -14 -3 -6 -6z"/>
<path d="M4860 3090 c0 -5 7 -10 15 -10 8 0 15 5 15 10 0 6 -7 10 -15 10 -8 0
-15 -4 -15 -10z"/>
<path d="M5447 3083 c-13 -13 -7 -31 13 -36 18 -5 40 16 40 37 0 8 -45 7 -53
-1z"/>
<path d="M5546 3083 c-3 -3 -3 -10 0 -14 7 -12 34 -11 34 0 0 11 -26 22 -34
14z"/>
<path d="M3820 3065 c0 -8 5 -15 10 -15 6 0 10 7 10 15 0 8 -4 15 -10 15 -5 0
-10 -7 -10 -15z"/>
<path d="M6354 3056 c-18 -14 -18 -15 9 -21 34 -9 61 10 37 25 -20 13 -23 12
-46 -4z"/>
<path d="M5948 3023 c7 -3 16 -2 19 1 4 3 -2 6 -13 5 -11 0 -14 -3 -6 -6z"/>
<path d="M6318 2955 c2 -14 6 -25 7 -25 1 0 5 11 7 25 3 16 1 25 -7 25 -8 0
-10 -9 -7 -25z"/>
<path d="M6213 2944 c-5 -15 11 -33 30 -34 15 0 20 32 6 41 -20 13 -29 11 -36
-7z"/>
</g>
</svg>
